HIERARCHY
ROOT Hips
{
	OFFSET -3.958830 18.904000 13.208200
	CHANNELS 6 Xposition Yposition Zposition Zrotation Yrotation Xrotation 
	JOINT LHipJoint
	{
		OFFSET 0.000000 0.000000 0.000000
		CHANNELS 3 Zrotation Yrotation Xrotation
		JOINT LeftUpLeg
		{
			OFFSET 1.800000 -1.400000 0.085000
			CHANNELS 3 Zrotation Yrotation Xrotation
			JOINT LeftLeg
			{
				OFFSET 2.215000 -6.000000 0.000000
				CHANNELS 3 Zrotation Yrotation Xrotation
				JOINT LeftFoot
				{
					OFFSET 2.500000 -6.900000 0.000000
					CHANNELS 3 Zrotation Yrotation Xrotation
					JOINT LeftToeBase
					{
						OFFSET 0.200000 -0.500000 1.950000
						CHANNELS 3 Zrotation Yrotation Xrotation
						End Site
						{
							OFFSET 0.000000 0.000000 0.000000
						}
					}
				}
			}
		}
	}
	JOINT RHipJoint
	{
		OFFSET 0.000000 0.000000 0.000000
		CHANNELS 3 Zrotation Yrotation Xrotation
		JOINT RightUpLeg
		{
			OFFSET -1.800000 -1.400000 0.085000
			CHANNELS 3 Zrotation Yrotation Xrotation
			JOINT RightLeg
			{
				OFFSET -2.215000 -6.000000 0.000000
				CHANNELS 3 Zrotation Yrotation Xrotation
				JOINT RightFoot
				{
					OFFSET -2.500000 -6.900000 0.000000
					CHANNELS 3 Zrotation Yrotation Xrotation
					JOINT RightToeBase
					{
						OFFSET -0.200000 -0.500000 1.950000
						CHANNELS 3 Zrotation Yrotation Xrotation
						End Site
						{
							OFFSET 0.000000 0.000000 0.000000
						}
					}
				}
			}
		}
	}
	JOINT LowerBack
	{
		OFFSET 0.000000 0.000000 0.000000
		CHANNELS 3 Zrotation Yrotation Xrotation
		JOINT Spine
		{
			OFFSET -0.087000 1.940000 -0.288900
			CHANNELS 3 Zrotation Yrotation Xrotation
			JOINT Spine1
			{
				OFFSET 0.000000 1.950000 0.060000
				CHANNELS 3 Zrotation Yrotation Xrotation
				JOINT Neck
				{
					OFFSET 0.000000 0.000000 0.000000
					CHANNELS 3 Zrotation Yrotation Xrotation
					JOINT Neck1
					{
						OFFSET 0.000000 1.600000 0.340000
						CHANNELS 3 Zrotation Yrotation Xrotation
						JOINT Head
						{
							OFFSET 0.000000 1.667000 -0.240000
							CHANNELS 3 Zrotation Yrotation Xrotation
							End Site
							{
								OFFSET 0.000000 0.000000 0.000000
							}
						}
					}
				}
				JOINT LeftShoulder
				{
					OFFSET 0.000000 0.000000 0.000000
					CHANNELS 3 Zrotation Yrotation Xrotation
					JOINT LeftArm
					{
						OFFSET 2.700000 1.550000 -0.730000
						CHANNELS 3 Zrotation Yrotation Xrotation
						JOINT LeftForeArm
						{
							OFFSET 5.450000 0.000000 0.000000
							CHANNELS 3 Zrotation Yrotation Xrotation
							JOINT LeftHand
							{
								OFFSET 3.450000 0.000000 0.000000
								CHANNELS 3 Zrotation Yrotation Xrotation
								JOINT LeftHandIndex1
								{
									OFFSET 0.750000 0.000000 0.000000
									CHANNELS 3 Zrotation Yrotation Xrotation
									End Site
									{
										OFFSET 0.000000 0.000000 0.000000
									}
								}
							}
						}
					}
				}
				JOINT RightShoulder
				{
					OFFSET 0.000000 0.000000 0.000000
					CHANNELS 3 Zrotation Yrotation Xrotation
					JOINT RightArm
					{
						OFFSET -2.700000 1.550000 -0.730000
						CHANNELS 3 Zrotation Yrotation Xrotation
						JOINT RightForeArm
						{
							OFFSET -5.450000 0.000000 0.000000
							CHANNELS 3 Zrotation Yrotation Xrotation
							JOINT RightHand
							{
								OFFSET -3.450000 0.000000 0.000000
								CHANNELS 3 Zrotation Yrotation Xrotation
								JOINT RightHandIndex1
								{
									OFFSET -0.750000 0.000000 0.000000
									CHANNELS 3 Zrotation Yrotation Xrotation
									End Site
									{
										OFFSET 0.000000 0.000000 0.000000
									}
								}
							}
						}
					}
				}
			}
		}
	}
}
MOTION
Frames: 6
Frame Time: 0.016667
-0.411740 17.666150 -2.330200 -19.783437 41.637298 -20.055430 -15.610184 14.328888 2.705670 14.785617 -1.904296 -5.855144 -4.329329 5.549844 10.869427 -0.911232 5.229038 2.899448 0.256360 -0.265270 0.356570 17.775427 -9.561218 3.158491 -29.028494 -6.781971 -28.375291 3.781628 -5.690471 8.153179 -0.127015 -3.579252 3.001850 0.061290 0.498420 0.074650 -2.629734 -5.311986 -8.046163 3.822832 -7.140406 34.554695 1.730132 -5.086050 19.724851 0.117178 1.683482 -11.014616 -2.363847 -2.707544 40.768638 11.834730 -5.118960 -17.554950 -5.755701 -15.619097 1.540902 -6.032743 -28.751568 -1.015171 111.507587 -50.425544 -75.236651 -3.892728 1.858105 0.917160 0.084630 -0.141120 0.059100 5.679931 10.891476 10.903799 3.023883 -7.564120 -1.058551 -5.989111 1.178410 0.061614 2.218952 -0.798981 -0.635160 0.607550 0.239070 -0.345910 
-0.446600 17.684780 -2.369970 -20.485677 42.627160 -20.517441 -15.589495 14.299085 2.534682 14.348297 -2.333568 -7.797551 -2.983588 5.339563 13.537730 -0.908980 4.997768 2.925611 0.319390 -0.204880 0.401680 17.795982 -9.504698 3.413441 -29.065365 -6.569222 -29.356250 5.294953 -5.644646 6.985919 -0.189646 -3.604720 2.950309 0.050900 0.407970 0.137310 -2.807673 -5.109491 -8.099067 4.785177 -7.642473 35.283041 0.833304 -5.304872 19.147642 0.432207 2.200767 -11.434733 -1.509187 -2.844453 41.651730 11.805340 -4.695880 -18.123840 -5.227227 -17.157426 1.554152 -4.563527 -28.789068 -2.452227 107.110433 -50.516480 -69.826876 -3.816218 1.888532 0.929220 0.038650 -0.066490 0.072280 4.543801 11.732161 11.576304 3.165689 -8.258139 -1.249980 -7.733077 2.166407 0.102273 2.234721 -0.885879 -0.548180 0.505220 0.186080 -0.343350 
-0.497040 17.723180 -2.411250 -21.143722 41.823666 -22.401740 -15.559735 14.470680 2.569769 15.205826 -2.568396 -8.547685 -2.996916 5.729943 16.761922 -0.817986 5.158140 2.802866 0.400990 -0.103150 0.415390 17.774993 -9.784336 3.217672 -26.731734 -5.554610 -32.006043 5.589000 -6.426541 13.532476 -0.174758 -3.560127 2.929529 0.072580 0.338020 0.185510 -2.852409 -4.927512 -7.950177 5.372982 -7.045597 37.719822 0.571517 -4.329447 19.329765 0.516300 2.212495 -11.477371 -1.465736 -3.501931 40.674297 12.494260 -5.294810 -17.968750 -3.651273 -18.239335 0.851839 -3.591459 -30.453284 -4.367597 100.441430 -49.654561 -61.916730 -3.742784 2.020573 0.881410 0.004670 -0.029970 0.100040 2.588671 13.012063 12.530166 1.979909 -9.110235 -1.124109 -8.677708 1.517302 0.104752 2.283659 -1.004419 -0.442790 0.398350 0.128530 -0.310030 
-0.556540 17.764910 -2.405420 -23.181809 42.114684 -27.448891 -15.516995 14.695780 2.655207 17.875902 -2.715068 -8.159985 -3.321684 6.593942 20.847961 -0.737951 5.727697 2.524975 0.430200 -0.064280 0.464510 17.749968 -10.151636 2.879685 -24.792177 -4.602233 -32.215238 5.489975 -8.758254 26.137094 -0.303910 -4.484520 2.568295 0.066060 0.255330 0.198540 -2.843955 -4.845728 -7.785690 5.746792 -6.901295 42.242186 0.391332 -3.747601 19.824134 0.742389 2.598733 -11.669388 -0.977818 -4.142887 41.743071 13.529050 -4.697110 -21.027160 -2.471452 -20.261672 -0.040504 0.258686 -30.190209 -7.524281 94.081850 -49.668895 -55.357296 -3.688054 2.016172 0.953230 -0.064020 0.055260 0.074900 0.921222 14.859285 13.798112 -0.578096 -11.963275 -0.964197 -8.307884 4.633191 0.152048 2.211909 -0.982321 -0.415160 0.377540 0.111300 -0.328580 
-0.616660 17.771920 -2.434150 -26.139429 41.925522 -32.612827 -15.452751 14.640857 2.647987 20.944281 -2.675749 -8.046739 -3.526445 7.446096 24.121950 -0.597329 6.248952 2.322592 0.510810 0.074110 0.465160 17.814797 -10.281433 2.790698 -21.867551 -2.777257 -32.589002 4.259204 -11.334959 40.249515 -0.636416 -6.263825 2.006720 0.119940 0.252770 0.165560 -3.049491 -4.510267 -7.765335 7.724851 -8.234496 46.204157 -0.622913 -4.288153 19.792682 0.724240 1.757516 -11.248346 -2.505511 -3.610335 42.242869 15.515300 -4.858730 -21.782740 -2.144611 -21.704887 -1.013532 4.936461 -29.212067 -10.660980 83.830834 -49.103284 -45.353621 -3.629832 2.122033 0.931790 -0.098380 0.091900 0.144150 0.782661 16.530421 13.887990 -7.047757 -11.950107 -0.851590 -9.516530 5.057264 0.062420 2.217741 -1.019891 -0.373070 0.421050 0.036850 -0.274330 
-0.688660 17.719840 -2.411850 -27.927881 41.489082 -36.002116 -15.451108 14.386286 2.634066 23.760641 -2.178784 -7.494804 -4.565042 8.496086 25.249263 -0.597151 6.825868 2.106612 0.438850 -0.017800 0.454940 17.881688 -10.043079 3.006969 -19.453177 -0.075446 -33.646020 2.363627 -14.129303 55.353364 -1.164130 -8.649905 1.281995 0.104180 0.294750 0.114460 -3.103334 -4.320922 -7.954791 8.816705 -8.076603 48.791033 -1.030455 -3.583624 18.705723 0.850955 2.386170 -10.992552 -1.425441 -3.619880 43.725287 16.162970 -4.444500 -21.857660 -2.573110 -23.183203 -1.728220 10.184120 -28.527392 -12.141150 73.825690 -49.659661 -37.257592 -3.652912 2.081546 0.994730 -0.093450 0.068970 0.102850 0.978744 17.631773 13.731786 -11.140737 -12.827250 -1.617205 -13.286368 6.766389 -0.098700 2.186227 -0.982637 -0.470400 0.509380 0.097180 -0.312060 
